<svg width="39" height="40" viewBox="0 0 39 40" fill="none" xmlns="http://www.w3.org/2000/svg">
<mask id="path-1-inside-1_303_19" fill="white">
<path fill-rule="evenodd" clip-rule="evenodd" d="M1.53553 30.2487C-0.417087 32.2014 -0.417088 35.3672 1.53553 37.3198C3.48816 39.2724 6.65398 39.2724 8.6066 37.3198L19 26.9264L29.7487 37.6751C31.7014 39.6278 34.8672 39.6278 36.8198 37.6751C38.7724 35.7225 38.7724 32.5567 36.8198 30.6041L26.0711 19.8553L36.8909 9.03553C38.8435 7.08291 38.8435 3.91709 36.8909 1.96447C34.9383 0.0118453 31.7724 0.0118461 29.8198 1.96447L19 12.7843L8.53553 2.31981C6.58291 0.367184 3.41709 0.367184 1.46447 2.31981C-0.488155 4.27243 -0.488154 7.43825 1.46447 9.39087L11.9289 19.8553L1.53553 30.2487Z"/>
</mask>
<path fill-rule="evenodd" clip-rule="evenodd" d="M1.53553 30.2487C-0.417087 32.2014 -0.417088 35.3672 1.53553 37.3198C3.48816 39.2724 6.65398 39.2724 8.6066 37.3198L19 26.9264L29.7487 37.6751C31.7014 39.6278 34.8672 39.6278 36.8198 37.6751C38.7724 35.7225 38.7724 32.5567 36.8198 30.6041L26.0711 19.8553L36.8909 9.03553C38.8435 7.08291 38.8435 3.91709 36.8909 1.96447C34.9383 0.0118453 31.7724 0.0118461 29.8198 1.96447L19 12.7843L8.53553 2.31981C6.58291 0.367184 3.41709 0.367184 1.46447 2.31981C-0.488155 4.27243 -0.488154 7.43825 1.46447 9.39087L11.9289 19.8553L1.53553 30.2487Z" fill="white"/>
<path d="M1.53553 37.3198L2.24264 36.6127L1.53553 37.3198ZM1.53553 30.2487L0.828427 29.5416L1.53553 30.2487ZM8.6066 37.3198L9.31371 38.0269L8.6066 37.3198ZM19 26.9264L19.7071 26.2193L19 25.5122L18.2929 26.2193L19 26.9264ZM36.8198 30.6041L37.5269 29.897V29.897L36.8198 30.6041ZM26.0711 19.8553L25.364 19.1482L24.6569 19.8553L25.364 20.5624L26.0711 19.8553ZM36.8909 9.03553L36.1838 8.32843V8.32843L36.8909 9.03553ZM36.8909 1.96447L37.598 1.25736V1.25736L36.8909 1.96447ZM29.8198 1.96447L30.5269 2.67157L29.8198 1.96447ZM19 12.7843L18.2929 13.4914L19 14.1985L19.7071 13.4914L19 12.7843ZM8.53553 2.31981L7.82843 3.02691L8.53553 2.31981ZM1.46447 2.31981L2.17157 3.02691L1.46447 2.31981ZM1.46447 9.39087L0.75736 10.098L1.46447 9.39087ZM11.9289 19.8553L12.636 20.5624L13.3431 19.8553L12.636 19.1482L11.9289 19.8553ZM2.24264 36.6127C0.680544 35.0506 0.680544 32.5179 2.24264 30.9558L0.828427 29.5416C-1.51472 31.8848 -1.51472 35.6838 0.828427 38.0269L2.24264 36.6127ZM7.8995 36.6127C6.3374 38.1748 3.80474 38.1748 2.24264 36.6127L0.828427 38.0269C3.17157 40.3701 6.97056 40.3701 9.31371 38.0269L7.8995 36.6127ZM18.2929 26.2193L7.8995 36.6127L9.31371 38.0269L19.7071 27.6335L18.2929 26.2193ZM30.4558 36.968L19.7071 26.2193L18.2929 27.6335L29.0416 38.3823L30.4558 36.968ZM36.1127 36.968C34.5506 38.5301 32.0179 38.5301 30.4558 36.968L29.0416 38.3823C31.3848 40.7254 35.1838 40.7254 37.5269 38.3823L36.1127 36.968ZM36.1127 31.3112C37.6748 32.8733 37.6748 35.4059 36.1127 36.968L37.5269 38.3823C39.8701 36.0391 39.8701 32.2401 37.5269 29.897L36.1127 31.3112ZM25.364 20.5624L36.1127 31.3112L37.5269 29.897L26.7782 19.1482L25.364 20.5624ZM36.1838 8.32843L25.364 19.1482L26.7782 20.5624L37.598 9.74264L36.1838 8.32843ZM36.1838 2.67157C37.7459 4.23367 37.7459 6.76633 36.1838 8.32843L37.598 9.74264C39.9411 7.3995 39.9411 3.60051 37.598 1.25736L36.1838 2.67157ZM30.5269 2.67157C32.089 1.10948 34.6217 1.10948 36.1838 2.67157L37.598 1.25736C35.2548 -1.08579 31.4558 -1.08578 29.1127 1.25736L30.5269 2.67157ZM19.7071 13.4914L30.5269 2.67157L29.1127 1.25736L18.2929 12.0772L19.7071 13.4914ZM7.82843 3.02691L18.2929 13.4914L19.7071 12.0772L9.24264 1.6127L7.82843 3.02691ZM2.17157 3.02691C3.73367 1.46481 6.26633 1.46481 7.82843 3.02691L9.24264 1.6127C6.8995 -0.730447 3.10051 -0.730447 0.757359 1.6127L2.17157 3.02691ZM2.17157 8.68377C0.609476 7.12167 0.609476 4.58901 2.17157 3.02691L0.757359 1.6127C-1.58579 3.95584 -1.58579 7.75484 0.75736 10.098L2.17157 8.68377ZM12.636 19.1482L2.17157 8.68377L0.75736 10.098L11.2218 20.5624L12.636 19.1482ZM2.24264 30.9558L12.636 20.5624L11.2218 19.1482L0.828427 29.5416L2.24264 30.9558Z" fill="#413D3D" mask="url(#path-1-inside-1_303_19)"/>
</svg>
